<?xml version="1.0" encoding="UTF-8"?>
<svg id="Layer_1" data-name="Layer 1" xmlns="http://www.w3.org/2000/svg" viewBox="0 0 1080 529.06">
  <path d="M476.44,238.05l-16.63,3.2c-24.77,6.18-33.5,26.18-47.41,44.63-14.08,18.68-47.24,52.77-72.91,46.1-23.83-6.19-28.45-30-31.94-51.12-3.85-23.28-4.95-48.24-5.49-71.59-.41-17.8,1-35.89-.72-53.53-1.11-.18-1.77.02-2.66.7-2.89,2.21-6.63,10.55-9.65,13.55-1.47,1.46-3.29,1.82-4.52,2.96-10.67,9.93-19.29,23.79-30.66,33.69-7.41,6.46-24.23,18.34-33.78,19.34-9.07.96-13.36-.65-18.97-7.78-19.03-24.19-4.13-89.45-3.02-119.71.06-1.6.57-10.85-1.11-10.83l-32.91,76.32c-5.28,15.87-13.53,30.54-19.66,46.18-1.98,5.05-10.93,27.06-14.04,34.59-7.17,17.38-14.93,35.67-22.91,52.67-3.01,6.41-7.47,16.94-11.26,22.41-6.65,9.61-13.8,7.07-8.63-4.14,15.53-33.73,31.43-67.48,45.26-102.14,2.21-5.53,3.43-12.01,5.8-17.4,11.39-25.9,23.35-52.15,34.4-78.59,5.64-13.51,14.47-44.17,24.69-53.12,6.22-5.45,10.03,4.43,10.79,9.44.96,6.31.47,16.57.07,23.11-1.67,27.15-14.11,90.05-.3,111.81,3.53,5.56,7.15,7.12,13.83,5.72,10.34-2.18,36.65-28.41,44.49-37.07,10.4-11.48,20.09-27.51,31.01-37.83,11.03-10.41,14.32,1.1,15.03,11.22,3.26,46.96-4.06,95.22,8.42,141.98,3.82,14.31,10.23,32.37,28.56,31.29,15.67-.93,40.81-21.17,51.3-32.54,16.39-17.76,35.3-53.52,63.21-53.52h12.35Z"/>
  <path d="M473.22,203.39c2.82-1.95,3.17-2.6,6.9-4.69,2.25-1.26,5.2-5.9,8.35-1.49,3.45,4.83-6.65,12.64,2.57,19.88,6.78,5.33,18.15.71,25.1-2.58,9.91-4.69,20.06-13.39,29.62-17.52,10.52-4.55,11.92,4.01,4.7,9.94-7.84,6.44-27.14,15.57-36.83,19.29-10.56,4.06-26.03,5.43-33.03-5.42-1.43-2.21-1.25-4.85-3.08-6.68-7.87,2.48-12.05,8.42-19.4,11.96-14.03,6.75-33.29,11.43-38.07-8.35-.77-3.19-.54-7.9-1.35-10.62-.26-.86-.82-1.29-1.75-1.28-1.61.02-13.59,13.19-16.07,15.38-10.91,9.62-31.17,22.77-46.06,21.34-9.37-.9-12.36-9.26-10.03-17.57,4.56-16.26,14.94-28.79,29.87-36.72,9.42-5,29.29-9.7,37.37-.68,1.24,1.38,1.34,4.59,2.67,4.05,3.04-3.35,11.86-12.04,16.51-9.03,4.74,3.06-.17,12.83-.97,17.08-.94,4.97-2.37,19.09,4.08,20.98,11.19,3.28,29.91-11.05,38.9-17.29ZM410.59,194.65c-5.09.79-10.19-2.17-15.13-2.04-17.34.45-40.36,20.6-39.89,38.7,1.05,1.69,2.74,1.55,4.52,1.56,10.61.11,35.54-19.47,43.04-27.35,1.31-1.37,8.84-9.55,7.46-10.87Z"/>
  <g>
    <path d="M606.64,200.63c25.8-.63,56.23,10.92,63.07,38.33,3.85,15.42-3.28,29.04-20.05,29.76-10.54.45-19.35-5.04-28.79-8.22,6.62,30.2-29.7,64.94-58.88,51.02-10.39-4.95-16.55-14.16-21.58-24.09-11.31,9.59-21.88,17.73-37.37,18.74-21.47,1.39-49.43-10.96-45.98-36.25,1.88-13.83,23.32-21.41,35.38-20.54,1.94.14,10.54,1.6,11.9,2.31,1.52.79,1.43,1.21,1.28,2.83-1.04,1-14.11-.98-16.83-.76-8.43.7-22.95,6.82-25.31,15.86-3.92,15.02,12.78,26.41,25.64,28.71,17.3,3.1,30.5-2.39,43.06-13.89,2.59-2.37,6.25-9.23,10.43-8.97,5.03.32,5.39,9.01,7.26,12.99,14.02,29.89,49.94,19.68,61.41-5.75,5.38-11.93,1.64-18.8,1.31-30.07-.3-10.27,13.18,2.12,17.5,4.24,10.44,5.15,29.26,10.57,33.97-4.46,3.95-12.6-4.62-27.19-14.51-34.46-11.21-8.24-32.26-14.32-45.76-10.09-2.83.89-9.61,6.56-11.06,1-.69-2.65,6.12-8.78,7.12-13.92,5.73-29.56-29.98-35.69-51.4-29.7-12.12,3.39-19.98,10.67-28.97,18.9l-1.11-1.84c5.6-5.56,10.61-11.37,17.45-15.48,29.59-17.74,80.44-9.95,70.84,33.79Z"/>
    <path d="M563.09,232.97c1.01,1.37,1.05,7.71.55,9.59-3.26,12.2-28.92,19.14-28.89,4.09.01-7.54,10.48-15.63,17.61-16.13,1.93-.13,9.79,1.18,10.73,2.45Z"/>
  </g>
  <g>
    <path d="M841.32,236.09c.39,1.32,1.29,2.76,1.4,4.12.4,4.9-7.04,18.56-9.02,24.6-.75,2.29-3.83,10.33-2.87,11.89.54.83,1.28.78,2.15.77,6.26-.02,12.7-1.14,18.91-1.29,2.79-.07,9.75.37,18.21,2.02,2.75.54,7.53.42,8.06,4.13,1.57,10.82-15.57,5.18-20.82,4.6-7.58-.84-19.97-.08-27.63,1.03-1.89.27-4.37.17-5.86,1.42-1.96,1.66-5.07,9.2-6.33,11.92-19.06,41.19-34.77,83.66-52.83,125.2-11.12,25.59-49.07,40.73-75.48,39.67-42.17-1.7-62.2-37.66-102.13-41.68-29.15-2.94-54.26,15.92-82.89,1.67l-14.61-7.81c5.95,1.43,11.18,4.56,17.06,6.3,30.74,9.11,39.48-4.6,66.71-7.34,41-4.13,54.99,15.95,86.8,31.59,18.66,9.18,46.59,11.51,64.89.84,25-14.59,30.92-31.99,41.49-57.41,1.58-3.81,4.77-10.68,5.61-14.33.22-.95.37-1.95-.75-2.29-2.38-.73-8.12,5.05-10.6,6.37-15.83,8.42-44.38,15.1-60.75,6.3-5.82-3.13-8.43-11.37-10.1-17.39-13.22,1.09-25.91,9.51-39.3,9.43-6.18-.04-9.71-1.39-13.15-6.7-1.97-3.04-4.09-13.31-6.97-13.56-7.03-.61-16.6,14.89-24.68,17.37-12.92,3.95-11.58-21.54-16.95-22.61-7.5-1.49-18.59,9.49-23.09,14.74-4.9,5.72-13.08,22.45-21.84,18.97-5.58-2.22,3.66-13.38,1.75-15.52-13.41-.93-26.67,1.96-39.42,5.79-3.19.96-21.95,7.18-22.6,8.96-.54,5.39-1.49,10.78-3.51,15.81-.99,2.45-11.94,15.33-13.53,16.58-4.79,3.77-6.3,6.6-12.9,9.41-15.82,6.73-37.9,5.65-24.43-16.66,5.94-9.84,13.64-14.91,23.1-21,2.5-1.61,16.27-8.84,16.85-9.81.9-1.49-2.9-8.37-5.32-8.13-8.94,2.87-19.14,6.17-28.49,7.15-9.89,1.04-20.13-.22-29.86.18-11.79.49-18.4,14.12-31.16,16.85-23.85,5.1-17.57-19.97-11.9-33.55-.06-2.4-13.56-1.19-15.84-.92-32.32,3.77-65.65,28.69-86.57,52.64-12.6,14.41-19.33,29.44-37.27,38.45-41.32,20.74-88.8-6.34-103.17-47.53-29.18-83.6,49.83-184.89,138.04-144.69,2.7,1.23,23.19,12.52,19.03,16.66-5.53-1.54-9.69-5.79-14.82-8.34-38.71-19.23-79.35-8.33-108.32,21.89-43.03,44.87-40.52,148.93,33.63,158.18,44.03,5.49,59.06-37.83,86.17-63.28,19.5-18.31,52.38-33.16,79.07-35.72,6.63-.63,10.01,1.21,15.54,2.03,5.91.88,4.92-3.69,7.79-6.25,8.25-7.37,31.15-9.31,32.25,5.56.17,2.22-.16,5.92-.43,8.23-.48,4.06-4.43,8.95,1.45,10.15,7.33,1.5,24.15-.34,31.9-1.76,3.89-.72,19.13-4.29,21.94-5.75,1.51-.78,3.32-4.8,4.86-6.46,4.02-4.34,20.67-16.62,26.09-16.98,4.26-.28,8.73,2.98,5.08,7.23-3.14,3.66-15.45,8.22-20.47,12.87-.84.77-3.75,4.16-4.06,5.02-1.13,3.09,2.83,10.86,6.22,10.83,2.82-.03,14.69-5.25,18.53-6.44,16.54-5.09,33.44-9.13,50.85-9.34,2.81-2.59,8-20.28,11.81-20.07,3.94.22,3.26,6.66,2.73,9.33-.55,2.76-3.51,5.96-1.31,7.98,5.14-4.22,13.27-13.51,20.13-14.02,8.83-.66,13.71,1.39,16.77,9.82,2.14,5.9.6,15.01,8.95,9.06,7.62-5.43,17.76-23.32,28.74-16.13,6.45,4.23,3.95,15.23,10.39,19.87,9.98,7.18,33.68-7.75,45.19-7.51,7.98-14.73,23.87-25.94,40.74-27.73,9.33-.99,22.2,1.08,19.28,13.36-2,8.41-9.45,12.95-16.43,17.32-11.05,6.92-22.87,11.71-36.24,10.08-.25,6.95,7.42,10.28,13.34,11.11,23.65,3.32,46.52-14.27,66.3-24.56,10.05-21.97,20.79-43.66,29.11-66.39.16-1.34-.23-2.6-1.72-2.64-13.25,1.28-26.53.85-39.82,1.05-7.49.12-23.83,4.04-27.33-4.54-1.67-4.1,7.02-5.77,9.95-5.95,3.7-.22,7.43.55,11.11.43,17.91-.58,35.8-.84,53.55-3.21,1.51-.61,2.93-3.12,3.75-4.53,3.4-5.82,14.32-35.07,17.9-36.95.91-.48,3.6-.56,4.37-.04ZM702.66,364.89c6.69.69,14.12-2.12,20.1-5.02,4.42-2.14,18.05-10.2,20.18-13.98.58-1.03,1.76-2.56.95-3.78-15.36-3.93-37.64,6.65-41.23,22.78ZM396.64,353.37c-3.93-4.31-20.6,3.7-15.69,11.04,1.79,2.67,10.87,6.59,13.46,4.23,2.08-1.9,4.22-13.08,2.23-15.27ZM366.66,388.46c1.56.06,3.14.32,4.7.05,2.44-.42,13.66-6.55,12.95-9.27l-13.86-7.52c-2.87,1.35-3.97,13.53-3.8,16.74ZM436.16,423.26c12.48.43,23.66-7.05,30.64-17.03,1.16-1.66,9.93-14.83,3.01-12.43-3.05,1.06-11.8,6.69-14.92,8.76-7.4,4.92-16.64,11.7-18.73,20.7Z"/>
    <path d="M957.33,346.23c-3.61,3.16-14.74-3.21-20.27-3.03-14.49.46-30.56,13.8-36.98,26.18-3.34,6.45.77,11.11,7.41,12.1,10.45,1.56,35.85-8.51,46.44-12.62,9.8-3.81,23.65-11.69,33.64-13.33,3.78-.62,6.94.8,6.63,5.04-.35,4.85-11.17,7.49-15.12,9.22-20.31,8.91-38.79,17.32-61.14,20.83-11.47,1.8-25.06,1.63-29.49-11.14-.79-2.27.04-4.96-2.27-6.44-2.54,1.59-4.87,3.64-7.6,4.93-6.62,3.12-25.27,10.01-32.1,10.3-15.56.67-25.27-7.6-22.25-23.71.41-2.21,3.23-10.16,5.34-10.68,10.38-.17,2.83,9.24,2.67,13.88-.15,4.27,3.48,9.05,7.59,10.13,13.4,3.53,38.56-12.46,50.64-19.1,8.97-4.94,9.07-7.87,16.15-13.7,10.35-8.52,26.39-14.18,39.62-10.24,3.15.94,15.78,7.26,11.09,11.38Z"/>
    <path d="M845.62,316.5c11.69-1.86,6.44,14.26-4.26,15.06-9.38.7-4.2-13.71,4.26-15.06Z"/>
  </g>
  <path d="M498.72,157.38c10.56-1.47,5.59,12.79-2.95,15.05-11.22,2.97-6.89-13.69,2.95-15.05Z"/>
</svg>